# xmcd CD database file
#
# Track frame offsets:
#	150
#	10067
#	21475
#	31900
#	42682
#	53022
#	64300
#	75895
#	87402
#	98627
#	109587
#	119892
#	131552
#	142232
#	153345
#	167805
#	180857
#	191510
#	202980
#	215505
#
# Disc length: 3056 seconds
#
# Revision: 0
# Processed by: cddbd v1.4PL0 Copyright (c) Steve Scherf et al.
# Submitted via: CDex 1.50
#
DISCID=130bee14
DTITLE=Patsy Cline - Walkin' After Midnight
DYEAR=1989
DGENRE=Country
TTITLE0=Turn the cards slowly
TTITLE1=The heart you break
TTITLE2=Three cigarettes in an ashtray
TTITLE3=I cried all the way down to the altar
TTITLE4=Pick me up (on your way down)
TTITLE5=Just out of reach
TTITLE6=In care of the blues
TTITLE7=I've lovedand lost again
TTITLE8=Hungry for love
TTITLE9=I can't forget you
TTITLE10=I love you honey
TTITLE11=Never no more
TTITLE12=Stop look and listen
TTITLE13=Don't ever leave me
TTITLE14=Then you'll know
TTITLE15=If I could see the world
TTITLE16=Honky tonk merry-go-round
TTITLE17=Walkin' after midnight
TTITLE18=Fingerprints
TTITLE19=A church, a courtroom and then goodbye
EXTD=YEAR: 1989
EXTT0=
EXTT1=
EXTT2=
EXTT3=
EXTT4=
EXTT5=
EXTT6=
EXTT7=
EXTT8=
EXTT9=
EXTT10=
EXTT11=
EXTT12=
EXTT13=
EXTT14=
EXTT15=
EXTT16=
EXTT17=
EXTT18=
EXTT19=
PLAYORDER=
